<?xml version="1.0" encoding="utf-8"?>
<!-- Generator: Adobe Illustrator 25.4.1, SVG Export Plug-In . SVG Version: 6.00 Build 0)  -->
<svg version="1.1" id="Calque_1" xmlns="http://www.w3.org/2000/svg" xmlns:xlink="http://www.w3.org/1999/xlink" x="0px" y="0px"
	 viewBox="0 0 170.37 170.37" style="enable-background:new 0 0 170.37 170.37;" xml:space="preserve">
<style type="text/css">
	.st0{fill:#FFFFFF;}
</style>
<g>
	<path class="st0" d="M85.19,15.35c22.75,0,25.44,0.09,34.42,0.5c8.31,0.38,12.82,1.77,15.82,2.93c3.98,1.55,6.81,3.39,9.79,6.37
		s4.83,5.82,6.37,9.79c1.17,3,2.55,7.51,2.93,15.82c0.41,8.98,0.5,11.68,0.5,34.42s-0.09,25.44-0.5,34.42
		c-0.38,8.31-1.77,12.82-2.93,15.82c-1.54,3.98-3.39,6.81-6.37,9.79c-2.98,2.98-5.82,4.83-9.79,6.37c-3,1.17-7.51,2.55-15.82,2.93
		c-8.98,0.41-11.68,0.5-34.42,0.5s-25.44-0.09-34.42-0.5c-8.31-0.38-12.82-1.77-15.82-2.93c-3.98-1.54-6.81-3.39-9.8-6.37
		c-2.98-2.98-4.83-5.82-6.37-9.79c-1.17-3-2.55-7.51-2.93-15.82c-0.41-8.98-0.5-11.68-0.5-34.42s0.09-25.44,0.5-34.42
		c0.38-8.31,1.77-12.82,2.93-15.82c1.54-3.98,3.39-6.81,6.37-9.79c2.98-2.98,5.82-4.83,9.8-6.37c3-1.17,7.51-2.55,15.82-2.93
		C59.75,15.44,62.44,15.35,85.19,15.35 M85.19,0C62.05,0,59.15,0.1,50.06,0.51C41,0.93,34.8,2.37,29.39,4.47
		c-5.6,2.18-10.35,5.09-15.09,9.83s-7.65,9.49-9.83,15.09C2.37,34.8,0.93,41,0.51,50.06C0.1,59.15,0,62.05,0,85.19
		s0.1,26.04,0.51,35.12c0.41,9.07,1.85,15.26,3.96,20.68c2.18,5.6,5.09,10.35,9.83,15.09s9.49,7.65,15.09,9.83
		c5.42,2.11,11.61,3.55,20.68,3.96c9.09,0.41,11.99,0.51,35.12,0.51s26.04-0.1,35.12-0.51c9.07-0.41,15.26-1.85,20.68-3.96
		c5.6-2.18,10.35-5.09,15.09-9.83c4.74-4.74,7.65-9.49,9.83-15.09c2.11-5.42,3.55-11.61,3.96-20.68c0.41-9.09,0.51-11.99,0.51-35.12
		s-0.1-26.04-0.51-35.12c-0.41-9.07-1.85-15.26-3.96-20.68c-2.18-5.6-5.09-10.35-9.83-15.09c-4.74-4.74-9.49-7.65-15.09-9.83
		c-5.42-2.11-11.61-3.55-20.68-3.96C111.22,0.1,108.32,0,85.19,0z M85.19,41.44c-24.16,0-43.74,19.59-43.74,43.74
		s19.59,43.74,43.74,43.74s43.74-19.59,43.74-43.74S109.35,41.44,85.19,41.44z M85.19,113.58c-15.68,0-28.4-12.71-28.4-28.4
		s12.71-28.4,28.4-28.4s28.4,12.71,28.4,28.4S100.87,113.58,85.19,113.58z M140.88,39.71c0,5.65-4.58,10.22-10.22,10.22
		c-5.65,0-10.22-4.58-10.22-10.22s4.58-10.22,10.22-10.22C136.3,29.49,140.88,34.07,140.88,39.71z"/>
</g>
</svg>
