<?xml version="1.0" encoding="utf-8"?>
<!-- Generator: Adobe Illustrator 25.4.1, SVG Export Plug-In . SVG Version: 6.00 Build 0)  -->
<svg version="1.1" id="Calque_1" xmlns="http://www.w3.org/2000/svg" xmlns:xlink="http://www.w3.org/1999/xlink" x="0px" y="0px"
	 viewBox="0 0 100.6 31.3" style="enable-background:new 0 0 100.6 31.3;" xml:space="preserve">
<g>
	<path d="M4.5,18.65V31.3H0V0h10.25c3.1,0,4.65,1.47,4.65,4.4v9.8c0,2.53-1.12,3.98-3.35,4.35L16.5,31.3h-4.85l-4.7-12.65H4.5z
		 M4.5,3.65v11.4h4.4c0.6,0,1-0.09,1.2-0.27s0.3-0.58,0.3-1.18V5.1c0-0.6-0.1-0.99-0.3-1.17C9.9,3.74,9.5,3.65,8.9,3.65H4.5z"/>
	<path d="M28.65,31.3H24.1v-9.9L17.4,0H22l4.35,17.25L30.45,0h4.6l-6.4,21.4V31.3z"/>
	<path d="M46.7,31.3h-4.55v-9.9L35.45,0h4.6l4.35,17.25L48.5,0h4.6l-6.4,21.4C46.7,21.4,46.7,31.3,46.7,31.3z"/>
	<path d="M55.9,0h10.25c3.1,0,4.65,1.47,4.65,4.4v10.4c0,2.93-1.55,4.4-4.65,4.4H60.4v12.1h-4.5V0z M66.3,14.1v-9
		c0-0.6-0.1-0.99-0.3-1.17c-0.2-0.18-0.6-0.27-1.2-0.27h-4.4V15.6h4.4c0.6,0,1-0.1,1.2-0.3S66.3,14.7,66.3,14.1z"/>
	<path d="M75.2,0h4.5v31.3h-4.5V0z"/>
	<path d="M96.45,0h4.15v31.3h-4.55l-6.6-22.6v22.6H85.3V0h4.75l6.4,21.95C96.45,21.95,96.45,0,96.45,0z"/>
</g>
</svg>
