<?xml version="1.0" encoding="utf-8"?>
<!-- Generator: Adobe Illustrator 25.4.1, SVG Export Plug-In . SVG Version: 6.00 Build 0)  -->
<svg version="1.1"
	 id="svg3626" xmlns:cc="http://creativecommons.org/ns#" xmlns:dc="http://purl.org/dc/elements/1.1/" xmlns:rdf="http://www.w3.org/1999/02/22-rdf-syntax-ns#" xmlns:svg="http://www.w3.org/2000/svg"
	 xmlns="http://www.w3.org/2000/svg" xmlns:xlink="http://www.w3.org/1999/xlink" x="0px" y="0px" viewBox="0 0 170.08 170.08"
	 style="enable-background:new 0 0 170.08 170.08;" xml:space="preserve">
<style type="text/css">
	.st0{fill:#FFFFFF;}
</style>
<g id="layer1" transform="translate(-539.17946,-568.85777)">
	<path id="path3611" class="st0" d="M592.85,722.6c63.81,0,98.7-52.86,98.7-98.7c0-1.5-0.03-3-0.1-4.48
		c6.77-4.9,12.66-11.01,17.3-17.96c-6.22,2.76-12.9,4.62-19.92,5.46c7.16-4.29,12.66-11.09,15.25-19.19
		c-6.7,3.97-14.12,6.86-22.03,8.42c-6.33-6.74-15.34-10.96-25.32-10.96c-19.16,0-34.69,15.54-34.69,34.69c0,2.72,0.3,5.37,0.9,7.91
		c-28.83-1.45-54.4-15.25-71.5-36.24c-2.98,5.13-4.7,11.08-4.7,17.44c0,12.04,6.12,22.66,15.44,28.88
		c-5.69-0.18-11.04-1.74-15.71-4.34c-0.01,0.15-0.01,0.29-0.01,0.44c0,16.8,11.96,30.83,27.83,34.01c-2.91,0.79-5.98,1.22-9.15,1.22
		c-2.23,0-4.41-0.22-6.52-0.63c4.42,13.78,17.22,23.81,32.41,24.09c-11.87,9.31-26.83,14.85-43.09,14.85c-2.8,0-5.56-0.16-8.27-0.48
		C555.03,716.86,573.26,722.6,592.85,722.6"/>
</g>
</svg>
